<svg width="123" height="123" viewBox="0 0 123 123" fill="none" xmlns="http://www.w3.org/2000/svg">
<path d="M64.2459 123H58.6575C10.689 123 0 112.303 0 64.2933V58.7008C0 10.6969 10.689 0 58.6575 0H64.2459C112.214 0 122.909 10.6969 122.909 58.7067V64.2992C122.909 112.303 112.214 123.006 64.2459 123.006V123Z" fill="#22FF7B"/>
<path d="M36.3039 53.1142C39.3871 53.1142 41.8865 50.613 41.8865 47.5275C41.8865 44.4421 39.3871 41.9409 36.3039 41.9409C33.2208 41.9409 30.7214 44.4421 30.7214 47.5275C30.7214 50.613 33.2208 53.1142 36.3039 53.1142Z" fill="#141414"/>
<path d="M86.5583 53.1142C89.6415 53.1142 92.1409 50.613 92.1409 47.5275C92.1409 44.4421 89.6415 41.9409 86.5583 41.9409C83.4752 41.9409 80.9758 44.4421 80.9758 47.5275C80.9758 50.613 83.4752 53.1142 86.5583 53.1142Z" fill="#141414"/>
<path d="M101.073 57.0366C103.359 54.0021 104.71 50.2209 104.71 46.1279C104.71 36.0955 96.5833 27.9684 86.5642 27.9684C79.0131 27.9684 72.5433 32.5789 69.8108 39.1417C67.4779 40.8941 64.5808 41.935 61.437 41.935C58.2932 41.935 55.3961 40.8941 53.0632 39.1417C50.3249 32.5789 43.855 27.9684 36.3098 27.9684C26.2848 27.9684 18.1637 36.1014 18.1637 46.1279C18.1637 50.2209 19.5153 53.9963 21.8012 57.0366C14.7966 63.6229 16.7593 70.6386 18.005 73.3613C18.005 73.3731 19.2626 75.7665 21.0842 77.8365C37.0444 95.9489 60.9023 95.0316 61.437 95.0316C61.9717 95.0316 85.8296 95.9489 101.79 77.8365C103.611 75.7665 104.869 73.3789 104.869 73.3613C106.115 70.6386 108.077 63.6229 101.073 57.0366ZM86.5583 36.3484C91.9528 36.3484 96.3306 40.7295 96.3306 46.1279C96.3306 51.5264 91.9528 55.9075 86.5583 55.9075C81.1638 55.9075 76.786 51.5264 76.786 46.1279C76.786 40.7295 81.1638 36.3484 86.5583 36.3484ZM36.3039 36.3484C41.6984 36.3484 46.0763 40.7295 46.0763 46.1279C46.0763 51.5264 41.6984 55.9075 36.3039 55.9075C30.9095 55.9075 26.5316 51.5264 26.5316 46.1279C26.5316 40.7295 30.9095 36.3484 36.3039 36.3484ZM96.2014 72.0499C96.2014 72.0499 95.6372 72.685 95.6314 72.6968C82.5389 87.1809 62.1304 86.5693 61.4311 86.5693C60.7318 86.5693 40.3233 87.1809 27.2309 72.6968C27.2309 72.685 26.6785 72.0734 26.6609 72.0499C24.2868 69.0508 24.7628 64.7638 27.8773 62.2116C30.3923 63.5347 33.26 64.2874 36.2981 64.2874C45.4005 64.2874 52.9339 57.5835 54.2444 48.8389C56.448 49.7916 58.8749 50.315 61.4252 50.315C63.9756 50.315 66.4025 49.7857 68.6061 48.8389C69.9165 57.5835 77.45 64.2874 86.5524 64.2874C89.5964 64.2874 92.4581 63.5347 94.9732 62.2116C98.0818 64.7579 98.5637 69.0449 96.1896 72.0499H96.2014Z" fill="#141414"/>
</svg>
